PathFileType	4	(X,Y,Z)	subject01_static_2019-12-03.trc
DataRate	CameraRate	NumFrames	NumMarkers	Units	OrigDataRate	OrigDataStartFrame	OrigNumFrames
100	100	5	39	m	100	135	358
Frame#	Time	L.ASIS			L.Acromium			L.Ankle.Lat			L.Ankle.Med			L.Heel			L.Knee.Lat			L.Knee.Med			L.Midfoot.Lat			L.Midfoot.Sup			L.Shank.Front			L.Shank.Rear			L.Shank.Upper			L.Thigh.Front			L.Thigh.Rear			L.Thigh.Upper			L.Toe.Lat			L.Toe.Med			L.Toe.Tip			R.ASIS			R.Acromium			R.Ankle.Lat			R.Ankle.Med			R.Heel			R.Knee.Lat			R.Knee.Med			R.Midfoot.Lat			R.Midfoot.Sup			R.Shank.Front			R.Shank.Rear			R.Shank.Upper			R.Thigh.Front			R.Thigh.Rear			R.Thigh.Upper			R.Toe.Lat			R.Toe.Med			R.Toe.Tip			Sternum			Top.Head			V.Sacral
		X1	Y1	Z1	X2	Y2	Z2	X3	Y3	Z3	X4	Y4	Z4	X5	Y5	Z5	X6	Y6	Z6	X7	Y7	Z7	X8	Y8	Z8	X9	Y9	Z9	X10	Y10	Z10	X11	Y11	Z11	X12	Y12	Z12	X13	Y13	Z13	X14	Y14	Z14	X15	Y15	Z15	X16	Y16	Z16	X17	Y17	Z17	X18	Y18	Z18	X19	Y19	Z19	X20	Y20	Z20	X21	Y21	Z21	X22	Y22	Z22	X23	Y23	Z23	X24	Y24	Z24	X25	Y25	Z25	X26	Y26	Z26	X27	Y27	Z27	X28	Y28	Z28	X29	Y29	Z29	X30	Y30	Z30	X31	Y31	Z31	X32	Y32	Z32	X33	Y33	Z33	X34	Y34	Z34	X35	Y35	Z35	X36	Y36	Z36	X37	Y37	Z37	X38	Y38	Z38	X39	Y39	Z39

134	1.34	-0.034789	0.915176	0.155611	-0.16289800000000002	1.428066	0.162661	-0.192299	0.081477	0.07999500000000001	-0.15149400000000002	0.077	0.167692	-0.23336500000000002	0.050447000000000006	0.133451	-0.15607000000000001	0.477257	0.11094200000000001	-0.14968800000000002	0.46208299999999997	0.234579	-0.136625	0.03953	0.056021	-0.092133	0.033951	0.14260699999999998	-0.130744	0.393374	0.148143	-0.24226	0.33467800000000003	0.08414500000000001	-0.160996	0.426548	0.104076	-0.023504	0.681272	0.153891	-0.160101	0.622158	0.094165	-0.10883499999999999	0.750827	0.085428	-0.068155	0.027023000000000002	0.021432	-0.031199	0.033588	0.126754	-0.015337	0.032003	0.058013	-0.031258999999999995	0.912285	0.396556	-0.178621	1.419184	0.405256	-0.181445	0.083369	0.454855	-0.160148	0.084083	0.362083	-0.235225	0.050729	0.3934	-0.15474200000000002	0.47449300000000005	0.43169399999999997	-0.137977	0.453504	0.313656	-0.13056700000000002	0.042283999999999995	0.47434399999999993	-0.095522	0.036225	0.388552	-0.123369	0.39177399999999996	0.39958499999999997	-0.21789	0.32902	0.45833900000000005	-0.15355	0.423255	0.438742	-0.019694	0.691041	0.407521	-0.180125	0.6117640000000001	0.436313	-0.109293	0.7468600000000001	0.464801	-0.077301	0.029592	0.5045810000000001	-0.035762	0.032926	0.409943	-0.028485000000000003	0.0311	0.474412	0.008518000000000001	1.203272	0.286781	-0.10433800000000001	1.703655	0.303937	-0.24336300000000002	0.883764	0.28320500000000004
135	1.35	-0.034792000000000003	0.9151739999999999	0.155579	-0.162917	1.4280629999999999	0.162657	-0.192323	0.081468	0.079993	-0.151498	0.07697999999999999	0.167688	-0.233377	0.050436	0.133447	-0.156081	0.477246	0.11093399999999999	-0.14966500000000002	0.462103	0.23456999999999997	-0.136622	0.039516	0.056024000000000004	-0.09212999999999999	0.033957	0.14260599999999998	-0.130742	0.393379	0.14812899999999998	-0.24225700000000003	0.33468000000000003	0.084142	-0.16099000000000002	0.426545	0.10405999999999999	-0.0235	0.681271	0.153878	-0.160098	0.622161	0.094141	-0.10882599999999999	0.7508279999999999	0.085411	-0.06815700000000001	0.027007999999999997	0.021436	-0.031168	0.033569	0.12676600000000002	-0.015323	0.032006	0.058005999999999995	-0.031264	0.912286	0.396537	-0.178675	1.419196	0.40522199999999997	-0.181452	0.083352	0.454847	-0.160153	0.084074	0.362081	-0.23522300000000002	0.050731	0.393382	-0.15475799999999998	0.47449300000000005	0.431674	-0.137975	0.45351499999999995	0.31364899999999996	-0.130557	0.042269	0.47435600000000006	-0.09552999999999999	0.036199	0.38855	-0.123374	0.39177199999999995	0.39957	-0.21789299999999998	0.329027	0.458347	-0.153586	0.42325100000000004	0.438721	-0.019688999999999998	0.691054	0.407503	-0.180114	0.611759	0.43629300000000004	-0.109278	0.7468640000000001	0.464776	-0.077303	0.029579	0.504582	-0.035758	0.032923	0.40993999999999997	-0.028469	0.031103	0.474423	0.008503	1.203272	0.28677600000000003	-0.104359	1.703629	0.303948	-0.243371	0.883747	0.283181
136	1.36	-0.034839999999999996	0.9154700000000001	0.15520599999999998	-0.162938	1.428052	0.162634	-0.192327	0.081471	0.079985	-0.15149300000000002	0.07701000000000001	0.167688	-0.233375	0.050443	0.133428	-0.15607200000000002	0.477221	0.110929	-0.149654	0.46211899999999995	0.234564	-0.13661800000000002	0.039514	0.056017	-0.092144	0.033951	0.142594	-0.130746	0.393375	0.148126	-0.242247	0.33468000000000003	0.084128	-0.16098900000000002	0.426555	0.10403	-0.023490999999999998	0.681277	0.153855	-0.16009400000000001	0.622168	0.094137	-0.108822	0.750829	0.08539400000000001	-0.068135	0.027011	0.021443	-0.031204000000000003	0.033569999999999996	0.12676500000000002	-0.015327	0.032005	0.058003	-0.031268000000000004	0.9122969999999999	0.396519	-0.17871099999999998	1.4191989999999999	0.405184	-0.18143499999999999	0.083381	0.454862	-0.160152	0.084073	0.362076	-0.23521599999999998	0.050736	0.39337300000000003	-0.15474200000000002	0.474499	0.431654	-0.13793699999999998	0.453538	0.313619	-0.130553	0.042288	0.474339	-0.095523	0.036206	0.38855500000000004	-0.12336400000000002	0.391789	0.399565	-0.21789899999999998	0.329038	0.458326	-0.153567	0.423249	0.43873100000000004	-0.019694	0.691066	0.407482	-0.180122	0.611753	0.436276	-0.10928299999999999	0.7468600000000001	0.464767	-0.07729	0.029564999999999998	0.504582	-0.035623	0.033745	0.410182	-0.028470999999999996	0.031110000000000002	0.474416	0.008481	1.20327	0.286773	-0.104369	1.7036209999999998	0.30394	-0.243367	0.883733	0.283156
137	1.37	-0.034801	0.9151790000000001	0.155563	-0.162953	1.428038	0.162607	-0.19231700000000002	0.081469	0.079983	-0.151498	0.07702200000000001	0.167684	-0.23339000000000001	0.050452	0.133433	-0.156085	0.477238	0.110911	-0.14966400000000002	0.462108	0.23454499999999998	-0.13660999999999998	0.039525	0.056010000000000004	-0.092179	0.033889999999999997	0.14294	-0.13073900000000002	0.393378	0.148107	-0.24224099999999998	0.33465700000000004	0.084141	-0.16099000000000002	0.42655299999999996	0.10404100000000001	-0.023496	0.681276	0.153848	-0.160079	0.622161	0.094125	-0.10882	0.750838	0.08538	-0.06815	0.027010000000000003	0.021437	-0.031163	0.033567	0.12676300000000001	-0.015319	0.032008999999999996	0.057998	-0.03128	0.9122870000000001	0.3965	-0.178752	1.419208	0.405152	-0.18146800000000002	0.083352	0.454837	-0.160137	0.084082	0.362068	-0.235215	0.050732	0.393386	-0.154749	0.474488	0.431648	-0.137968	0.453505	0.313627	-0.130551	0.042297	0.47435200000000005	-0.095512	0.036216000000000005	0.388548	-0.123349	0.391779	0.399556	-0.21787800000000002	0.329027	0.458312	-0.153594	0.423242	0.43870299999999995	-0.019691	0.691059	0.407472	-0.180133	0.611771	0.43625600000000003	-0.10929900000000001	0.746869	0.464747	-0.077304	0.029599	0.5045850000000001	-0.035615	0.033748	0.410174	-0.028462	0.031110000000000002	0.474412	0.008464	1.203264	0.28676599999999997	-0.104375	1.703616	0.303944	-0.24338400000000002	0.883727	0.283129
138	1.38	-0.034849	0.91548	0.155185	-0.16297799999999998	1.428021	0.162574	-0.192313	0.081474	0.07998	-0.151488	0.076997	0.167683	-0.23338699999999998	0.050463	0.133418	-0.156091	0.477236	0.11090699999999999	-0.149646	0.462106	0.23454099999999997	-0.13662	0.039517000000000004	0.056009	-0.092159	0.033919	0.14260599999999998	-0.130749	0.393369	0.148101	-0.24225500000000003	0.334661	0.084128	-0.16098099999999999	0.42657700000000004	0.10401500000000001	-0.023484	0.681284	0.153818	-0.16008	0.622173	0.09410299999999999	-0.108829	0.750834	0.08536200000000001	-0.068162	0.027017000000000003	0.021419	-0.031183999999999996	0.033552	0.126769	-0.015309	0.032001	0.058001	-0.031299	0.912293	0.396491	-0.178791	1.4192280000000002	0.40510799999999997	-0.18143	0.083385	0.454845	-0.160138	0.084077	0.36207	-0.23521399999999998	0.050730000000000004	0.393385	-0.15475799999999998	0.474484	0.431637	-0.137973	0.45349700000000004	0.313621	-0.130552	0.04227	0.47434899999999997	-0.095496	0.036209	0.38856199999999996	-0.12336	0.39177399999999996	0.39955799999999997	-0.21788400000000002	0.32903499999999997	0.458308	-0.156401	0.42062700000000003	0.436837	-0.019715	0.691052	0.407475	-0.180147	0.611781	0.43624399999999997	-0.109672	0.747275	0.46470200000000006	-0.077304	0.029577999999999997	0.504571	-0.035621	0.033743	0.410179	-0.028486	0.031106	0.474426	0.00845	1.203268	0.286769	-0.104353	1.7036069999999999	0.303917	-0.243385	0.8837309999999999	0.283119
